<mxfile host="app.diagrams.net" modified="2021-08-31T12:06:08.296Z" agent="5.0 (Windows)" etag="oq-GNZKYGmvaG9UfVI7W" version="15.0.3" type="github">
  <diagram id="anRxO0F-wpTq64ykbKsn" name="Page-1">
    <mxGraphModel dx="1422" dy="742" grid="1" gridSize="10" guides="1" tooltips="1" connect="1" arrows="1" fold="1" page="1" pageScale="1" pageWidth="827" pageHeight="1169" math="0" shadow="0">
      <root>
        <mxCell id="0" />
        <mxCell id="1" parent="0" />
        <mxCell id="zYfCgY2K60KRQGS9q8ei-4" value="&lt;h1&gt;&lt;font style=&quot;font-size: 24px&quot; color=&quot;#3368CF&quot;&gt;Library&lt;/font&gt;&lt;/h1&gt;" style="text;html=1;strokeColor=none;fillColor=none;align=center;verticalAlign=middle;whiteSpace=wrap;rounded=0;" parent="1" vertex="1">
          <mxGeometry x="200" y="110" width="390" height="70" as="geometry" />
        </mxCell>
        <mxCell id="zYfCgY2K60KRQGS9q8ei-8" style="edgeStyle=orthogonalEdgeStyle;rounded=0;orthogonalLoop=1;jettySize=auto;html=1;exitX=0.5;exitY=1;exitDx=0;exitDy=0;" parent="1" edge="1">
          <mxGeometry relative="1" as="geometry">
            <mxPoint x="115" y="330" as="sourcePoint" />
            <mxPoint x="115" y="330" as="targetPoint" />
          </mxGeometry>
        </mxCell>
        <mxCell id="zYfCgY2K60KRQGS9q8ei-26" style="edgeStyle=orthogonalEdgeStyle;rounded=0;orthogonalLoop=1;jettySize=auto;html=1;exitX=1;exitY=0.25;exitDx=0;exitDy=0;entryX=0.004;entryY=0.581;entryDx=0;entryDy=0;entryPerimeter=0;" parent="1" source="zYfCgY2K60KRQGS9q8ei-14" target="zYfCgY2K60KRQGS9q8ei-17" edge="1">
          <mxGeometry relative="1" as="geometry">
            <Array as="points">
              <mxPoint x="150" y="410" />
              <mxPoint x="190" y="410" />
              <mxPoint x="190" y="264" />
            </Array>
          </mxGeometry>
        </mxCell>
        <mxCell id="zYfCgY2K60KRQGS9q8ei-35" style="edgeStyle=orthogonalEdgeStyle;rounded=0;orthogonalLoop=1;jettySize=auto;html=1;entryX=0;entryY=0.571;entryDx=0;entryDy=0;entryPerimeter=0;" parent="1" source="zYfCgY2K60KRQGS9q8ei-14" target="zYfCgY2K60KRQGS9q8ei-23" edge="1">
          <mxGeometry relative="1" as="geometry">
            <Array as="points">
              <mxPoint x="188" y="440" />
              <mxPoint x="188" y="510" />
            </Array>
          </mxGeometry>
        </mxCell>
        <mxCell id="zYfCgY2K60KRQGS9q8ei-17" value="&lt;h3&gt;&lt;font style=&quot;font-size: 14px&quot;&gt;Genres&lt;/font&gt;&lt;/h3&gt;&lt;div align=&quot;left&quot;&gt;1. Classic&lt;/div&gt;&lt;div align=&quot;left&quot;&gt;2. Kid&#39;s literature&lt;/div&gt;&lt;div align=&quot;left&quot;&gt;3. Hobbies&lt;/div&gt;&lt;div align=&quot;left&quot;&gt;4. .........&lt;br&gt;&lt;/div&gt;" style="rounded=0;whiteSpace=wrap;html=1;fillColor=#fff2cc;strokeColor=#d6b656;" parent="1" vertex="1">
          <mxGeometry x="230" y="200" width="120" height="110" as="geometry" />
        </mxCell>
        <mxCell id="zYfCgY2K60KRQGS9q8ei-23" value="&lt;div&gt;&lt;h3&gt;Place &lt;/h3&gt;&lt;/div&gt;&lt;div&gt;shelf/row/box&lt;br&gt;&lt;/div&gt;" style="text;html=1;strokeColor=#d6b656;fillColor=#fff2cc;align=center;verticalAlign=middle;whiteSpace=wrap;rounded=0;" parent="1" vertex="1">
          <mxGeometry x="230" y="470" width="120" height="70" as="geometry" />
        </mxCell>
        <mxCell id="zYfCgY2K60KRQGS9q8ei-37" value="" style="endArrow=classic;html=1;entryX=0;entryY=0.8;entryDx=0;entryDy=0;entryPerimeter=0;exitX=1.004;exitY=0.787;exitDx=0;exitDy=0;exitPerimeter=0;" parent="1" source="zYfCgY2K60KRQGS9q8ei-14" target="zYfCgY2K60KRQGS9q8ei-18" edge="1">
          <mxGeometry width="50" height="50" relative="1" as="geometry">
            <mxPoint x="150" y="430" as="sourcePoint" />
            <mxPoint x="200" y="380" as="targetPoint" />
          </mxGeometry>
        </mxCell>
        <mxCell id="zYfCgY2K60KRQGS9q8ei-39" value="" style="endArrow=none;dashed=1;html=1;" parent="1" target="zYfCgY2K60KRQGS9q8ei-40" edge="1">
          <mxGeometry width="50" height="50" relative="1" as="geometry">
            <mxPoint x="350" y="415" as="sourcePoint" />
            <mxPoint x="400" y="415" as="targetPoint" />
          </mxGeometry>
        </mxCell>
        <mxCell id="zYfCgY2K60KRQGS9q8ei-45" value="" style="endArrow=none;dashed=1;html=1;exitX=1;exitY=0.25;exitDx=0;exitDy=0;" parent="1" source="zYfCgY2K60KRQGS9q8ei-17" target="zYfCgY2K60KRQGS9q8ei-46" edge="1">
          <mxGeometry width="50" height="50" relative="1" as="geometry">
            <mxPoint x="355" y="250" as="sourcePoint" />
            <mxPoint x="420" y="228" as="targetPoint" />
            <Array as="points" />
          </mxGeometry>
        </mxCell>
        <mxCell id="zYfCgY2K60KRQGS9q8ei-46" value="Top 3 books" style="rounded=0;whiteSpace=wrap;html=1;fillColor=#f8cecc;strokeColor=#b85450;container=1;" parent="1" vertex="1">
          <mxGeometry x="390" y="210" width="80" height="30" as="geometry" />
        </mxCell>
        <mxCell id="zYfCgY2K60KRQGS9q8ei-91" value="User Menu" style="swimlane;startSize=29;" parent="1" vertex="1" collapsed="1">
          <mxGeometry x="230" y="690" width="90" height="23" as="geometry">
            <mxRectangle x="230" y="690" width="200" height="160" as="alternateBounds" />
          </mxGeometry>
        </mxCell>
        <mxCell id="zYfCgY2K60KRQGS9q8ei-92" value="&lt;div align=&quot;left&quot;&gt;1. Enter Author&lt;/div&gt;&lt;div align=&quot;left&quot;&gt;2. Enter Title&lt;/div&gt;&lt;div align=&quot;left&quot;&gt;3. Enter Genre&lt;/div&gt;&lt;div align=&quot;left&quot;&gt;4. Show the list of all books&lt;/div&gt;&lt;div align=&quot;left&quot;&gt;5. Add a new book&lt;/div&gt;&lt;div align=&quot;left&quot;&gt;6. Remove a book&lt;/div&gt;&lt;div align=&quot;left&quot;&gt;7. Show Top-3 books&lt;br&gt;&lt;/div&gt;" style="text;html=1;align=left;verticalAlign=middle;resizable=0;points=[];autosize=1;strokeColor=none;rotation=0;container=1;" parent="zYfCgY2K60KRQGS9q8ei-91" vertex="1">
          <mxGeometry x="20" y="38.5" width="160" height="110" as="geometry" />
        </mxCell>
        <mxCell id="zYfCgY2K60KRQGS9q8ei-103" value="" style="rounded=1;whiteSpace=wrap;html=1;fillColor=none;gradientColor=none;align=left;" parent="zYfCgY2K60KRQGS9q8ei-92" vertex="1">
          <mxGeometry x="-10" width="170" height="110" as="geometry" />
        </mxCell>
        <mxCell id="zYfCgY2K60KRQGS9q8ei-104" value="" style="group" parent="1" vertex="1" connectable="0">
          <mxGeometry x="30" y="280" width="120" height="180" as="geometry" />
        </mxCell>
        <mxCell id="zYfCgY2K60KRQGS9q8ei-14" value="" style="rounded=0;whiteSpace=wrap;html=1;" parent="zYfCgY2K60KRQGS9q8ei-104" vertex="1">
          <mxGeometry x="10" width="110" height="180" as="geometry" />
        </mxCell>
        <mxCell id="zYfCgY2K60KRQGS9q8ei-15" value="&lt;div&gt;&lt;h3&gt;Books&lt;/h3&gt;&lt;/div&gt;&lt;div align=&quot;left&quot;&gt;1. ID (unique)&lt;/div&gt;&lt;div align=&quot;left&quot;&gt;2. Author&lt;/div&gt;&lt;div align=&quot;left&quot;&gt;3. Title&lt;/div&gt;&lt;div align=&quot;left&quot;&gt;4. Publisher&lt;/div&gt;&lt;div align=&quot;left&quot;&gt;5. Year&lt;/div&gt;&lt;div align=&quot;left&quot;&gt;6. Language&lt;/div&gt;&lt;div align=&quot;left&quot;&gt;7. Genres_ID&lt;/div&gt;&lt;div align=&quot;left&quot;&gt;8. Availability_ID&lt;/div&gt;&lt;div align=&quot;left&quot;&gt;9. Place_ID&lt;br&gt;&lt;/div&gt;" style="text;html=1;strokeColor=none;fillColor=none;align=center;verticalAlign=middle;whiteSpace=wrap;rounded=0;" parent="zYfCgY2K60KRQGS9q8ei-104" vertex="1">
          <mxGeometry y="70" width="120" height="20" as="geometry" />
        </mxCell>
        <mxCell id="zYfCgY2K60KRQGS9q8ei-105" value="" style="group" parent="1" vertex="1" connectable="0">
          <mxGeometry x="230" y="340" width="120" height="100" as="geometry" />
        </mxCell>
        <mxCell id="zYfCgY2K60KRQGS9q8ei-18" value="" style="rounded=0;whiteSpace=wrap;html=1;fillColor=#fff2cc;strokeColor=#d6b656;" parent="zYfCgY2K60KRQGS9q8ei-105" vertex="1">
          <mxGeometry width="120" height="100" as="geometry" />
        </mxCell>
        <mxCell id="zYfCgY2K60KRQGS9q8ei-19" value="&lt;div&gt;&lt;h3&gt;Availability&lt;/h3&gt;&lt;/div&gt;&lt;div align=&quot;left&quot;&gt;1. Place&lt;/div&gt;&lt;div align=&quot;left&quot;&gt;2. Lost&lt;br&gt;&lt;/div&gt;&lt;div align=&quot;left&quot;&gt;3. Given to smne&lt;/div&gt;&lt;div align=&quot;left&quot;&gt;4. Under repair&lt;br&gt;&lt;/div&gt;" style="text;html=1;strokeColor=none;fillColor=none;align=center;verticalAlign=middle;whiteSpace=wrap;rounded=0;" parent="zYfCgY2K60KRQGS9q8ei-105" vertex="1">
          <mxGeometry x="5" y="30" width="110" height="20" as="geometry" />
        </mxCell>
        <mxCell id="zYfCgY2K60KRQGS9q8ei-106" value="" style="group" parent="1" vertex="1" connectable="0">
          <mxGeometry x="410" y="390" width="50" height="40" as="geometry" />
        </mxCell>
        <mxCell id="zYfCgY2K60KRQGS9q8ei-40" value="" style="rounded=0;whiteSpace=wrap;html=1;fillColor=#f8cecc;strokeColor=#b85450;" parent="zYfCgY2K60KRQGS9q8ei-106" vertex="1">
          <mxGeometry width="50" height="40" as="geometry" />
        </mxCell>
        <mxCell id="zYfCgY2K60KRQGS9q8ei-41" value="&lt;div&gt;Name&lt;/div&gt;&lt;div&gt;Date&lt;br&gt;&lt;/div&gt;" style="text;html=1;strokeColor=none;fillColor=none;align=center;verticalAlign=middle;whiteSpace=wrap;rounded=0;" parent="zYfCgY2K60KRQGS9q8ei-106" vertex="1">
          <mxGeometry x="5" y="10" width="40" height="20" as="geometry" />
        </mxCell>
      </root>
    </mxGraphModel>
  </diagram>
</mxfile>
